<svg xmlns="http://www.w3.org/2000/svg" viewBox="0 0 26 32" fill="#53B0F6"><path class="bg" d="M19.7867966,1.17157288 L24.8284271,6.21320344 C25.5785726,6.96334895 26,7.9807646 26,9.04163056 L26,30 C26,31.1045695 25.1045695,32 24,32 L2,32 C0.8954305,32 0,31.1045695 0,30 L0,2 C0,0.8954305 0.8954305,0 2,0 L16.9583694,8.8817842e-16 C18.0192354,6.93300504e-16 19.0366511,0.421427361 19.7867966,1.17157288 Z"></path><path class="dark" d="M0,30 C0,31.1045695 0.8954305,32 2,32 L24,32 C25.1045695,32 26,31.1045695 26,30 L26,29 C26,30.1045695 25.1045695,31 24,31 L2,31 C0.8954305,31 0,30.1045695 0,29 L0,30 Z" fill="#000000" opacity=".2"></path><path class="icon" d="M16.294754,19.882366 L16.2794153,14.7673837 C16.2762269,13.7066081 15.423354,12.8283643 14.3595237,12.8249736 C13.2972704,12.8212081 12.4510642,13.6925868 12.454248,14.7518128 L12.4678395,19.1804943 C12.4689973,19.4550801 12.7010237,19.6939612 13.0008328,19.6952193 C13.2999347,19.6958725 13.5288062,19.4601926 13.5277316,19.1880038 L13.5193493,16.3409025 C13.5177997,15.8265092 13.9059621,15.4267999 14.3706402,15.4288663 C14.8348314,15.4297625 15.2233895,15.8298793 15.2243222,16.3422193 L15.2327041,19.1891921 C15.2370831,20.4891615 14.2320532,21.5240886 13.0032516,21.5201728 C11.8651657,21.5161076 10.9148419,20.6223174 10.779723,19.4573141 L10.7641067,19.4572672 L10.7500978,14.7496985 C10.7438308,12.6634208 12.3657789,10.9932236 14.3573021,11.0000207 C16.3482166,11.0063624 17.9781677,12.6848006 17.9839769,14.7690993 L17.9991552,19.8306093 L17.9991602,19.8323026 L18,20.1123412 L17.9928071,20.1123196 C17.8602899,22.8525232 15.6786327,25.0084676 13.013299,24.999975 C10.2599826,24.9912108 8.00905852,22.673327 8,19.8012393 L8.00572412,17.4384717 C8.00478882,16.9247983 8.39229708,16.5257626 8.85660778,16.5272401 C9.32145805,16.5281448 9.71018283,16.9280643 9.71111674,17.4409699 L9.70497313,19.8042468 C9.71089931,21.6506082 11.1848268,23.1683815 13.0113711,23.1745981 C14.8192777,23.17996 16.2719999,21.7022116 16.294754,19.882366 L16.294754,19.882366 Z" fill="#FFFFFF" opacity=".8"></path></svg>