<svg xmlns="http://www.w3.org/2000/svg" width='64' height='64' class="icon__yebK work-icon" viewBox="0 0 32 26" fill="#53B0F6" style="fill: rgb(250, 140, 21);"><path class="bg" d="M17.0106723,4 L30,4 C31.1045695,4 32,4.8954305 32,6 L32,24 C32,25.1045695 31.1045695,26 30,26 L2,26 C0.8954305,26 0,25.1045695 0,24 L0,2 C0,0.8954305 0.8954305,0 2,0 L13.7668767,0 C14.5228849,0 15.2142818,0.426288831 15.5538199,1.10176069 L17.0106723,4 Z"></path><path class="dark" d="M0,23 C1.3527075e-16,24.1045695 0.8954305,25 2,25 L30,25 C31.1045695,25 32,24.1045695 32,23 L32,24 C32,25.1045695 31.1045695,26 30,26 L2,26 C0.8954305,26 1.3527075e-16,25.1045695 0,24 L0,23 Z" fill="#000000" opacity=".2"></path><path class="icon" d="M17.0106723,4 L2,4 C0.8954305,4 2.84217094e-14,4.8954305 2.84217094e-14,6 L2.84217094e-14,2 C2.84217094e-14,0.8954305 0.8954305,0 2,0 L13.7668767,0 C14.5228849,0 15.2142818,0.426288831 15.5538199,1.10176069 L17.0106723,4 Z" fill="#FFFFFF" opacity=".4"></path></svg>