<svg xmlns="http://www.w3.org/2000/svg"   class="icon__yebK work-icon" viewBox="0 0 28 32"><path fill="#FFFFFF" d="M4 0L20.36464 0 28 7.6352 28 32 4 32z"></path><path fill="#9E9E9A" d="M3.63616 0L3.63616 10.8208 4.36416 10.7152 4.36416 8.7264 4.36416 0.7264 20.36416 0.7264 21.09056 0.7264 21.09056 1.4544 27.63616 7.9984 27.63616 31.272 4.36416 31.272 4.36416 28.5648 4.36416 27.8288 3.63616 27.7248 3.63616 32 28.36416 32 28.36416 7.6368 20.72576 0z"></path><path fill="#91928E" d="M13.81776 10.18208L25.45456 10.18208 25.45456 8.72608 13.81776 8.72608zM6.54416 6.54528L20.36336 6.54528 20.36336 5.09088 6.54416 5.09088zM13.81776 13.81888L25.45456 13.81888 25.45456 12.36448 13.81776 12.36448zM13.81776 21.09088L25.45456 21.09088 25.45456 19.63648 13.81776 19.63648zM13.81776 17.45408L25.45456 17.45408 25.45456 15.99968 13.81776 15.99968zM13.81776 28.36288L25.45456 28.36288 25.45456 26.90848 13.81776 26.90848zM13.81776 24.72608L25.45456 24.72608 25.45456 23.27328 13.81776 23.27328z"></path><path d="M21.0904,7.272 L26.9096,7.272 L21.0904,1.4544 L21.0904,7.272 Z M26.9096,7.272 L27.636,7.9984 L26.9096,7.272 Z" fill="#FFFFFF"></path><path fill="#9E9D9A" d="M20.36464 0.7272L20.36464 5.0904 20.36464 6.5448 20.36464 7.9992 27.63664 7.9992 26.90864 7.2712 21.09104 7.2712 21.09104 1.4536 21.09104 0.7272z"></path><path fill="#FFFFFF" d="M8.9072 21.21104L9.952 15.36464 11.5008 15.35984 9.696 23.28944 7.9984 23.27984 6.7664 17.70384 6.7488 17.70384 5.48 23.26544 3.7376 23.25584 1.9808 15.39664 3.6304 15.39024 4.6672 21.16464 4.688 21.16464 6.0464 15.38224 7.672 15.37424 8.8912 21.21104z"></path><path d="M4.3648,10.71504 L3.6368,10.82064 L-5.32907052e-15,11.34384 L-5.32907052e-15,27.19984 L3.6368,27.72464 L4.3648,27.83024 L13.0912,29.09104 L13.0912,9.45584 L4.3648,10.71504 Z M8.9072,21.21104 L9.952,15.36464 L11.5008,15.35984 L9.696,23.28944 L7.9984,23.27984 L6.7664,17.70384 L6.7488,17.70384 L5.48,23.26544 L3.7376,23.25584 L1.9808,15.39664 L3.6304,15.39024 L4.6672,21.16464 L4.688,21.16464 L6.0464,15.38224 L7.672,15.37424 L8.8912,21.21104 L8.9072,21.21104 Z" fill="#2C4E86"></path></svg>