<svg xmlns="http://www.w3.org/2000/svg"  class="icon__yebK work-icon" viewBox="0 0 26 32"><path class="bg" d="M19.7867966,1.17157288 L24.8284271,6.21320344 C25.5785726,6.96334895 26,7.9807646 26,9.04163056 L26,30 C26,31.1045695 25.1045695,32 24,32 L2,32 C0.8954305,32 0,31.1045695 0,30 L0,2 C0,0.8954305 0.8954305,0 2,0 L16.9583694,8.8817842e-16 C18.0192354,6.93300504e-16 19.0366511,0.421427361 19.7867966,1.17157288 Z" fill="#808080"></path><path class="dark" d="M0,30 C0,31.1045695 0.8954305,32 2,32 L24,32 C25.1045695,32 26,31.1045695 26,30 L26,29 C26,30.1045695 25.1045695,31 24,31 L2,31 C0.8954305,31 0,30.1045695 0,29 L0,30 Z" fill="#000000" opacity=".2"></path><path class="icon" d="M20,20 L22,20 L19,24.5 L16,20 L18,20 L18,14 L20,14 L20,20 Z M5,14 L7.66666667,14 L9.99988646,17.5352512 L12.3315173,14 L15,14 L15,24 L13,24 L13,17.2 L10,22 L7,17.2 L7,24 L5,24 L5,14 Z" fill="#FFFFFF" opacity=".8"></path></svg>