<svg xmlns="http://www.w3.org/2000/svg"   class="icon__yebK work-icon" viewBox="0 0 26 32"><path class="bg" d="M19.7867966,1.17157288 L24.8284271,6.21320344 C25.5785726,6.96334895 26,7.9807646 26,9.04163056 L26,30 C26,31.1045695 25.1045695,32 24,32 L2,32 C0.8954305,32 0,31.1045695 0,30 L0,2 C0,0.8954305 0.8954305,0 2,0 L16.9583694,8.8817842e-16 C18.0192354,6.93300504e-16 19.0366511,0.421427361 19.7867966,1.17157288 Z" fill="#FF3500"></path><path class="dark" d="M0,30 C0,31.1045695 0.8954305,32 2,32 L24,32 C25.1045695,32 26,31.1045695 26,30 L26,29 C26,30.1045695 25.1045695,31 24,31 L2,31 C0.8954305,31 0,30.1045695 0,29 L0,30 Z" fill="#000000" opacity=".2"></path><path class="icon" d="M6.91420118,15 L4.5,15 L4.5,22 L6.03905325,22 L6.03905325,19.5135521 L6.62248521,19.5135521 C8.68461538,19.5135521 9.37869822,18.3851641 9.37869822,17.0770328 C9.37869822,15.5292439 8.34260355,15 6.91420118,15 L6.91420118,15 Z M6.66272189,16.2881598 C7.44733728,16.2881598 7.78934911,16.5977175 7.78934911,17.2867332 C7.78934911,17.8259629 7.56804734,18.2653352 6.54201183,18.2653352 L6.03905325,18.2653352 L6.03905325,16.2881598 L6.66272189,16.2881598 Z M10.5254438,22 L12.7384615,22 C15.3337278,22 16.047929,20.1326676 16.047929,18.3452211 C16.047929,16.1084165 15.0118343,15 12.7183432,15 L10.5254438,15 L10.5254438,22 Z M12.0544379,16.2582026 L12.6076923,16.2582026 C13.7242604,16.2582026 14.4686391,16.7974322 14.4686391,18.4850214 C14.4686391,19.8330956 14.056213,20.7417974 12.6177515,20.7417974 L12.0544379,20.7417974 L12.0544379,16.2582026 Z M18.8544379,22 L18.8544379,19.3737518 L21.1278107,19.3737518 L21.1278107,18.1155492 L18.8544379,18.1155492 L18.8544379,16.2582026 L21.5,16.2582026 L21.5,15 L17.3254438,15 L17.3254438,22 L18.8544379,22 Z" fill="#FFFFFF" opacity=".8"></path></svg>