<svg xmlns="http://www.w3.org/2000/svg"   class="icon__yebK work-icon" viewBox="0 0 28 32"><path fill="#FFFFFF" d="M4 0L20.36464 0 28 7.6352 28 32 4 32z"></path><path fill="#9E9E9A" d="M4 0L4 10.8208 4.728 10.7152 4.728 9.9808 4.728 0.7264 20.728 0.7264 21.4544 1.2736 21.4544 1.4544 27.2736 7.272 27.4544 7.272 28 7.9984 28 31.272 4.728 31.272 4.728 28.5648 4.728 27.8288 4 27.7248 4 32 28.728 32 28.728 7.6368 21.0896 0z"></path><path fill="#EFB696" d="M13.81776 21.81888L25.45456 21.81888 25.45456 20.36288 13.81776 20.36288zM13.81776 24.72608L25.45456 24.72608 25.45456 23.27328 13.81776 23.27328zM13.81776 27.63488L25.45456 27.63488 25.45456 26.18048 13.81776 26.18048z"></path><path d="M13.81808,17.78096 C14.50448,18.02416 15.23088,18.18096 16.00048,18.18096 C19.61648,18.18096 22.54608,15.25136 22.54608,11.63536 L16.00048,11.63536 L16.00048,5.08976 C13.25648,5.08976 10.91568,6.78096 9.94288,9.17456 L13.81808,8.61456 L13.81808,17.78096 Z" fill="#8C8D89"></path><path d="M23.60016 7.99968L20.36496 7.99968 20.36496 4.34528C19.48496 3.90688 18.50416 3.63488 17.45456 3.63488L17.45456 10.18208 24.00016 10.18208C24.00016 9.41248 23.84336 8.68448 23.60016 7.99968M23.42672 7.52384C23.46032 7.59744 23.49072 7.67264 23.52272 7.74944 23.49072 7.67264 23.46032 7.59904 23.42672 7.52384" fill="#EFB696"></path><path d="M23.60016,7.99968 L23.62896,7.99968 C23.59696,7.91328 23.55696,7.83328 23.52176,7.75008 C23.49136,7.67328 23.45936,7.59808 23.42736,7.52448 C23.38896,7.43968 23.36176,7.35328 23.32016,7.27168 L21.09136,7.27168 L21.09136,4.73728 C20.85776,4.58208 20.61616,4.44128 20.36496,4.31648 L20.36496,4.34528 L20.36496,7.99968 L23.60016,7.99968 Z" fill="#967564"></path><path d="M7.07744,19.12944 C7.22944,19.07664 7.35584,18.99984 7.45824,18.89424 C7.55904,18.79024 7.63584,18.65904 7.68544,18.50224 C7.73664,18.34704 7.76224,18.16464 7.76224,17.95824 C7.76224,17.75664 7.73664,17.57904 7.68704,17.42704 C7.63584,17.27664 7.56064,17.15024 7.45824,17.04944 C7.35744,16.94864 7.23104,16.87184 7.07744,16.82224 C6.92704,16.77264 6.74784,16.74704 6.54464,16.74704 L5.94944,16.74864 L5.94784,19.20784 L6.54464,19.20784 C6.74624,19.20784 6.92544,19.18064 7.07744,19.12944" fill="#BF442B"></path><path d="M4.4384,15.388 L6.808,15.3783636 C7.2352,15.3768 7.6064,15.428 7.928,15.532 C8.2464,15.636 8.5136,15.7912 8.7264,16.0008 C8.9408,16.2104 9.1008,16.4728 9.2064,16.788 C9.312,17.1016 9.3664,17.4696 9.3648343,17.8904 C9.3648343,18.0216 9.3584,18.148 9.344,18.2728 C9.3312,18.396 9.3104,18.516 9.2816,18.6328 C9.2544,18.748 9.2192,18.86 9.176,18.9688 C9.1344,19.076 9.0848,19.1816 9.0272,19.2808 C8.9712,19.3832 8.9104,19.4776 8.8432,19.5688 C8.7744,19.6584 8.7024,19.7432 8.624,19.8216 C8.544,19.9016 8.4592,19.9736 8.368,20.0408 C8.2752,20.108 8.1776,20.1688 8.0736,20.2248 C7.9712,20.2792 7.8656,20.3272 7.7552,20.3704 C7.6464,20.4104 7.5328,20.4472 7.416,20.4744 C7.2992,20.5016 7.1776,20.5208 7.0528,20.5352 C6.9296,20.548 6.8,20.556 6.6688,20.556 L5.9472,20.5544 L5.9456,23.2664 L4.4352,23.2584 L4.4384,15.388 Z M13.0912,29.0904 L13.0912,9.4552 L4.3648,10.7144 L3.6368,10.82 L0,11.3448 L0,27.1992 L3.6368,27.724 L4.3648,27.8296 L13.0912,29.0904 Z" fill="#BF442B"></path></svg>