<svg xmlns="http://www.w3.org/2000/svg" class="icon__yebK work-icon" viewBox="0 0 26 32" fill="#3DA8F5"><path class="bg" d="M19.7867966,1.17157288 L24.8284271,6.21320344 C25.5785726,6.96334895 26,7.9807646 26,9.04163056 L26,30 C26,31.1045695 25.1045695,32 24,32 L2,32 C0.8954305,32 0,31.1045695 0,30 L0,2 C0,0.8954305 0.8954305,0 2,0 L16.9583694,8.8817842e-16 C18.0192354,6.93300504e-16 19.0366511,0.421427361 19.7867966,1.17157288 Z"></path><path class="dark" d="M0,30 C0,31.1045695 0.8954305,32 2,32 L24,32 C25.1045695,32 26,31.1045695 26,30 L26,29 C26,30.1045695 25.1045695,31 24,31 L2,31 C0.8954305,31 0,30.1045695 0,29 L0,30 Z" fill="#000000" opacity=".2"></path><path class="icon" d="M5.12601749,24 C5.57006028,22.2747728 7.13616057,21 9,21 C9.68859176,21 10.3365446,21.1739961 10.9022908,21.4804206 C11.8855714,19.9862732 13.5776075,19 15.5,19 C18.3690213,19 20.7249641,21.19675 20.9775785,24 L5.12601749,24 Z M10.5,12 C11.8807119,12 13,13.1192881 13,14.5 C13,15.8807119 11.8807119,17 10.5,17 C9.11928813,17 8,15.8807119 8,14.5 C8,13.1192881 9.11928813,12 10.5,12 Z" fill="#FFFFFF" opacity=".8"></path></svg>