<svg xmlns="http://www.w3.org/2000/svg"    class="icon__yebK work-icon" viewBox="0 0 26 32" fill="#53B0F6"><path class="bg" d="M19.7867966,1.17157288 L24.8284271,6.21320344 C25.5785726,6.96334895 26,7.9807646 26,9.04163056 L26,30 C26,31.1045695 25.1045695,32 24,32 L2,32 C0.8954305,32 0,31.1045695 0,30 L0,2 C0,0.8954305 0.8954305,0 2,0 L16.9583694,8.8817842e-16 C18.0192354,6.93300504e-16 19.0366511,0.421427361 19.7867966,1.17157288 Z"></path><path class="dark" d="M0,30 C0,31.1045695 0.8954305,32 2,32 L24,32 C25.1045695,32 26,31.1045695 26,30 L26,29 C26,30.1045695 25.1045695,31 24,31 L2,31 C0.8954305,31 0,30.1045695 0,29 L0,30 Z" fill="#000000" opacity=".2"></path><path class="icon" d="M6,17.0020054 L20,17.0020054 L20,18.0020054 L6,18.0020054 L6,17.0020054 Z M11,9.00200536 L13,9.00200536 L13,14.0020054 L12,14.0020054 L12,10.0020054 L11,10.0020054 L11,9.00200536 Z M7,11.0020054 L9,11.0020054 L9,9.00200536 L10,9.00200536 L10,14.0020054 L9,14.0020054 L9,12.0020054 L7,12.0020054 L7,14.0020054 L6,14.0020054 L6,9.00200536 L7,9.00200536 L7,11.0020054 Z M6,21.0020054 L20,21.0020054 L20,22.0020054 L6,22.0020054 L6,21.0020054 Z M6,25.0020054 L12,25.0020054 L12,26.0020054 L6,26.0020054 L6,25.0020054 Z" fill="#FFFFFF" opacity=".8"></path></svg>