<svg xmlns="http://www.w3.org/2000/svg"   class="icon__yebK work-icon" viewBox="0 0 28 32"><path fill="#FFFFFF" d="M4 0L20.36464 0 28 7.6352 28 32 4 32z"></path><path fill="#9E9E9A" d="M4 0L4 10.8208 4.728 10.7152 4.728 9.9808 4.728 0.7264 20.728 0.7264 21.4544 1.2736 21.4544 1.4544 27.2736 7.272 27.4544 7.272 28 7.9984 28 31.272 4.728 31.272 4.728 28.5648 4.728 27.8288 4 27.7248 4 32 28.728 32 28.728 7.6368 21.0896 0z"></path><path fill="#80B896" d="M13.81776 29.09088L18.90896 29.09088 18.90896 25.45568 13.81776 25.45568zM19.63536 29.08928L25.45456 29.08928 25.45456 25.45408 19.63536 25.45408zM13.81776 24.72608L18.90896 24.72608 18.90896 21.09088 13.81776 21.09088zM19.63536 24.72608L25.45456 24.72608 25.45456 21.09088 19.63536 21.09088zM13.81776 20.36448L18.90896 20.36448 18.90896 16.72768 13.81776 16.72768zM19.63536 20.36448L25.45456 20.36448 25.45456 16.72768 19.63536 16.72768zM13.81776 15.99968L18.90896 15.99968 18.90896 12.36448 13.81776 12.36448zM19.63536 15.99968L25.45456 15.99968 25.45456 12.36448 19.63536 12.36448zM13.81808 8.61536L13.81808 11.63616 18.90928 11.63616 18.90928 7.99936 13.09008 7.99936 13.09008 8.71936zM19.63536 11.63488L25.45456 11.63488 25.45456 7.99968 19.63536 7.99968z"></path><path fill="#91928E" d="M6.54496 29.09088L8.00576 29.09088 6.54496 28.87968zM12.36416 7.99968L6.54496 7.99968 6.54496 9.66528 12.36416 8.82528zM13.08976 7.27168L18.90896 7.27168 18.90896 3.63488 13.08976 3.63488zM19.63536 7.27168L21.08976 7.27168 21.08976 3.63488 19.63536 3.63488zM6.54576 7.27168L12.36496 7.27168 12.36496 3.63488 6.54576 3.63488z"></path><path d="M4.3648,10.71504 L3.6368,10.82064 L-7.10542736e-15,11.34384 L-7.10542736e-15,27.19984 L3.6368,27.72464 L4.3648,27.83024 L13.0912,29.09104 L13.0912,25.45424 L13.0912,24.72624 L13.0912,21.08944 L13.0912,20.36304 L13.0912,16.72784 L13.0912,15.99984 L13.0912,12.36464 L13.0912,11.63504 L13.0912,9.45584 L4.3648,10.71504 Z M6.5152,18.21264 L7.8208,15.37424 L9.5232,15.36784 L7.488,19.29424 L9.5744,23.29104 L7.7648,23.27984 L6.4608,20.39344 L6.44,20.39344 L5.12,23.26704 L3.3216,23.25744 L5.464,19.32624 L3.5088,15.39184 L5.3472,15.38384 L6.4976,18.21264 L6.5152,18.21264 Z" fill="#246A43"></path><path fill="#FFFFFF" d="M5.12048 23.26688L6.43888 20.39328 6.46128 20.39328 7.76368 23.28128 9.57488 23.29088 7.48688 19.29568 9.52208 15.36768 7.81968 15.37408 6.51408 18.21408 6.49808 18.21408 5.34768 15.38368 3.50928 15.39168 5.46288 19.32608 3.32208 23.25728z"></path></svg>